PathFileType	4	(X/Y/Z)	C:/Users/beibeiliu/ov580/test_trc/User2\sequence.1_training_dense_right.trc
DataRate	CameraRate	NumFrames	NumMarkers	Units	OrigDataRate	OrigDataStartFrame	OrigNumFrames
120	120	21	19	mm	120	1	338
Frame#	Time	ThumbCMC			ThumbMCP			ThumbIP			ThumbTip			IndexMCP			IndexPIP			IndexTip			MiddleMCP			MiddlePIP			MiddleTip			RingMCP			RingPIP			RingTip			PinkyMCP			PinkyPIP			PinkyTip			BackHand1			BackHand2			BackHand3	
		X0	Y0	Z0	X1	Y1	Z1	X2	Y2	Z2	X3	Y3	Z3	X4	Y4	Z4	X5	Y5	Z5	X6	Y6	Z6	X7	Y7	Z7	X8	Y8	Z8	X9	Y9	Z9	X10	Y10	Z10	X11	Y11	Z11	X12	Y12	Z12	X13	Y13	Z13	X14	Y14	Z14	X15	Y15	Z15	X16	Y16	Z16	X17	Y17	Z17	X18	Y18	Z18	
0	0	177.179	9.1379	234.886	146.677	5.1842	217.725	123.949	-0.571992	191.838	110.63	-7.89333	172.115	184.462	22.0823	150.105	175.905	17.0729	120.202	167.702	14.028	97.6359	216.357	18.2897	141.11	211.631	15.2619	109.925	213.934	8.95676	78.0285	237.808	6.49301	145.271	241.393	4.24192	118.047	246.317	2.44769	89.2273	255.884	-9.32496	161.284	267.295	-13.0639	137.994	278.304	-13.2918	118.843	239.324	13.319	201	243.588	19.5078	234.946	208.818	27.8045	221.086	
1	0.00833333	174.39	10.795	230.014	150.696	4.5117	217.707	125.371	-0.193982	189.879	107.913	-7.66063	174.656	184.208	21.9068	149.918	173.909	19.6622	120.703	170.422	13.2154	93.4502	212.68	19.4935	141.921	210.602	15.3412	105.559	213.195	9.48093	75.7452	235.764	8.37314	142.733	245.026	3.28769	121.008	244.517	3.12344	89.0839	254.806	-9.36389	161.412	267.485	-12.9145	136.545	274.979	-12.3237	113.72	238.771	13.4468	200.791	243.341	19.1575	234.114	208.005	29.6763	217.539	
2	0.0166667	174.437	11.2397	234.915	151.064	4.80766	214.583	124.522	0.845328	190.635	111.071	-6.45868	172.357	184.975	22.1189	148.994	174.133	20.2097	124.191	171.764	14.0732	96.2091	213.055	19.4422	136.407	210.847	15.514	105.724	213.817	8.81733	74.0885	238.812	7.38535	144.048	241.476	4.6327	120.431	245.146	2.14648	89.9965	255.935	-8.03965	159.979	266.738	-14.1757	138.565	274.708	-12.7118	117.529	240.102	13.5559	199.294	246.671	19.3176	230.75	210.75	29.7871	218.389	
3	0.025	174.043	11.9244	231.879	149.985	5.8695	217.471	125.844	1.37522	188.916	109.138	-6.04791	171.97	184.189	22.8883	150.931	174.355	19.394	119.737	173.18	13.2131	94.1244	218.015	18.1455	138.208	215.529	13.6082	104.368	216.784	6.69896	75.7276	238.641	8.431	142.138	244.271	4.46832	116.41	244.839	1.79713	89.0411	256.357	-8.76295	161.112	265.894	-14.2812	140.042	278.274	-13.4837	114.244	238.811	15.7145	199.183	245.904	17.4027	233.414	207.602	29.7063	214.98	
4	0.0333333	174.474	11.2691	230.775	152.325	3.92403	216.331	126.921	-0.234198	190.85	111.132	-8.25541	171.412	186.71	20.6141	146.983	176.323	18.4329	122.81	174.758	10.395	95.1163	215.187	17.4058	141.795	214.635	11.222	104.757	215.321	6.122	77.5423	238.769	4.81612	147.201	242.833	2.50143	115.761	246.776	0.1143	87.7775	258.258	-12.7745	164.184	269.45	-15.7271	136.137	279.393	-17.5661	113.842	240.862	12.1741	202.418	250.577	16.1932	233.041	214.619	26.0504	218.29	
5	0.0416667	176.413	8.71745	229.621	155.309	1.29652	215.412	130.902	-4.04239	194.405	114.347	-11.0547	174.487	185.806	18.3876	148.943	181.635	14.0914	119.771	170.402	9.68475	92.9321	219.338	14.0408	141.44	219.274	9.16003	108.06	216.659	3.64319	79.1451	239.893	3.27064	143.772	247.292	-0.549233	119.257	245.457	-3.18552	91.412	261.998	-15.3369	161.326	268.322	-18.3428	139.242	283.109	-19.7279	113.719	246.082	7.5342	199.324	249.03	13.4095	230.423	215.661	23.9212	214.252	
6	0.05	179.482	4.76192	231.095	152.79	0.466032	218.721	126.614	-4.85741	193.949	111.254	-13.8331	176.833	188.03	15.0179	149.241	177.556	12.5184	120.877	176.542	4.68923	94.2213	217.492	12.1025	140.987	217.316	6.30385	108.742	217.387	-0.292702	77.938	244.757	-1.06016	144.95	248.98	-4.73631	119.754	249.564	-7.86895	92.3189	259.444	-18.3199	163.974	273.015	-24.2024	138.604	283.349	-24.3253	113.921	244.167	6.73038	202.953	247.961	10.9578	233.5	214.381	21.0699	215.807	
7	0.0583333	179.413	2.73527	236.203	153.558	-1.94541	219.099	128.315	-7.46388	195.785	111.638	-15.0488	176.004	186.652	13.6706	149.868	180.298	8.0152	119.533	173.782	2.36722	92.7152	219.545	7.47085	139.701	217.575	2.50269	107.777	220.032	-5.02485	74.4818	245.372	-5.57671	144.765	250.12	-8.99773	119.124	247.252	-10.0123	92.8328	259.93	-21.4456	165.98	269.576	-26.288	141.898	283.678	-26.9828	118.04	244.079	5.09887	199.14	249.669	8.98503	235.702	213.367	20.1248	219.447	
8	0.0666667	180.583	-0.355848	231.135	153.052	-4.85563	219.978	129.987	-10.7825	197.754	111.508	-18.621	179.147	187.087	9.3188	148.615	178.181	6.39985	121.681	174.543	-0.414253	97.5791	219.398	5.01178	141.061	217.212	-1.30396	105.851	216.659	-6.60253	80.9294	241.223	-6.15234	148.461	245.437	-10.7923	121.885	248.07	-13.162	90.3911	261.183	-23.56	164.632	268.713	-28.6191	139.034	282.366	-32.0028	120.537	247.58	1.76339	200.49	251.701	5.72735	232.362	215.821	15.9547	220.005	
9	0.075	178.148	0.749321	236.21	151.58	-6.01044	219.319	127.574	-10.7243	198.104	109.916	-18.0165	177.473	187.504	9.34262	148.331	175.401	6.33568	125.507	170.847	-1.56931	95.1966	214.479	6.76779	138.345	214.69	-0.73321	105.948	213.583	-5.4805	79.8421	240.466	-6.12583	147.853	242.517	-9.93502	121.339	244.156	-12.358	91.6057	261.872	-23.9695	164.255	268.487	-28.3492	139.214	277.336	-28.636	116.942	240.901	1.18099	203.019	249.945	5.21902	230.874	216.765	17.1435	220.228	
10	0.0833333	178.977	0.398974	232.465	148.467	-3.97051	217.631	123.251	-10.5148	196.725	109.256	-18.7709	175.813	184.269	10.9115	152.281	172.653	6.77117	121.576	172.323	0.221384	97.0338	214.966	6.12835	138.943	215.818	0.842552	109.24	213.61	-5.92193	78.937	240.431	-5.7239	143.73	242.445	-8.82844	120.109	243.07	-11.2728	91.2859	260.569	-24.0836	163.137	266.334	-27.5673	138.317	277.36	-27.8678	113.196	240.123	2.24425	204.091	248.305	7.78319	234.355	213.707	15.4905	220.522	
11	0.0916667	177.255	0.462704	236.533	152.864	-4.62131	217.932	123.54	-9.19323	192.32	106.69	-16.6121	173.756	180.999	12.1981	149.751	173.963	8.36586	121.242	167.928	1.33614	94.226	211.47	8.48461	141.667	212.703	2.94375	107.034	209.165	-2.25449	77.7043	238.589	-3.70244	143.683	241.968	-8.13655	119.408	240.507	-10.1102	88.0572	255.932	-20.4524	157.793	267.13	-26.2894	134.826	277.132	-28.1337	114.057	240.92	2.79502	197.945	246.502	7.44692	232.04	208.63	17.5088	216.375	
12	0.1	174.47	2.40133	235.692	150.943	-3.30973	217.746	125.155	-8.61075	196.973	108.128	-14.8167	177.495	179.466	14.9299	147.575	173.498	9.7865	121.269	165.014	4.32691	98.7142	210.294	10.5958	136.53	212.803	2.53199	104.319	210.406	-3.10922	76.9687	236.421	-2.61806	141.879	242.289	-7.7502	115.5	238.172	-7.96693	87.798	257.453	-20.2318	158.316	263.78	-25.0599	135.081	273.232	-26.0506	112.636	239.265	5.8862	199	245.467	7.02862	230.843	209.711	20.1564	219.71	
13	0.108333	176.84	1.07451	231.876	148.622	-3.56191	217.46	125.005	-7.67929	195.095	106.831	-14.858	179.241	182.686	12.9363	149.615	174	9.90048	121.246	164.694	4.05916	92.9215	214.423	8.86789	140.636	211.972	3.91473	108.115	209.776	-3.36529	74.2745	238	-4.36724	140.962	235.569	-6.39498	117.43	238.798	-9.62304	91.2893	256.552	-21.9654	161.831	264.602	-26.906	134.078	270.156	-26.0364	114.893	238.124	4.07305	201.936	244.978	6.74629	229.525	208.49	20.0216	219.764	
14	0.116667	173.236	0.179378	232.166	144.451	-4.2628	220.487	121.8	-9.26514	196.142	102.61	-15.4082	175.052	177.805	13.0309	146.43	171.221	7.37964	118.997	162.025	2.70011	95.7132	207.864	8.13739	138.884	210.26	2.17161	108.631	206.469	-4.30042	75.3529	236.643	-6.17993	142.545	237.318	-8.36767	114.049	236.198	-10.6014	86.1087	253.208	-23.1449	161.143	264.614	-28.1876	138.422	272.059	-27.7221	111.844	239.317	1.12038	199.777	242.036	6.68873	231.419	206.749	16.4715	215.637	
15	0.125	169.683	-0.810829	232.038	144.51	-7.79512	218.713	118.563	-12.1686	197.506	102.116	-19.451	179.481	175.037	10.1144	147.657	165.651	4.88596	119.832	158.11	0.129585	95.8018	206.573	4.69606	136.711	203.083	-0.00388804	104.935	202.166	-5.80406	77.1306	230.165	-6.69293	141.549	237.83	-11.6728	118.958	236.514	-14.0223	88.0544	252.119	-25.3222	160.855	261.543	-30.9557	137.734	269.25	-30.4569	113.495	238.949	-0.224152	200.696	243.673	4.37097	228.802	205.57	14.0816	218.932	
16	0.133333	170.924	-6.10596	232.854	140.98	-10.8262	218.856	117.926	-16.7039	193.828	98.8019	-23.9923	178.435	172.55	5.87359	147.344	162.303	1.67867	122.204	158.741	-5.10627	93.5791	203.722	2.23929	140.532	201.208	-3.7261	108.397	204.212	-11.7196	78.468	228.06	-10.6414	146.584	232.444	-15.0086	116.191	232.281	-16.7315	87.3686	249.774	-28.7267	163.625	257.756	-34.1107	134.7	266.57	-33.5624	112.304	234.856	-2.18428	201.813	241.627	2.14525	232.723	204.292	10.4346	220.033	
17	0.141667	165.934	-7.31875	233.264	140.929	-15.538	216.74	113.783	-20.7845	199.723	97.1724	-27.8982	183.65	172.267	1.48595	147.464	162.915	-2.96001	122.1	156.434	-9.77738	97.4063	203.29	-2.91861	138.203	200.583	-8.40227	105.901	197.482	-13.4155	77.507	224.839	-12.9997	143.793	231.691	-19.2368	115.21	227.945	-20.3133	90.2641	246.43	-30.2566	159.62	256.171	-36.8884	135.296	267.582	-36.5327	117.1	233.596	-4.84009	201.721	239.11	0.225865	234.939	198.92	8.80512	220.751	
18	0.15	163.071	-9.0095	239.783	137.961	-16.8378	220.062	111.096	-23.4125	203.294	92.7277	-30.2489	185.48	167.259	-0.938033	152.813	160.388	-5.58119	126.805	155.152	-13.0496	96.5656	197.983	-4.11383	139.209	199.4	-11.347	111.846	199.394	-18.9094	78.4357	226.972	-17.3416	148.849	227.648	-20.3856	121.844	226.41	-23.5264	91.1873	243.961	-32.7629	164.96	253.325	-38.1098	136.502	263.067	-39.6962	119.69	227.018	-6.08647	201.806	233.033	-3.01561	234.359	199.564	6.79865	220.892	
19	0.158333	161.667	-11.013	238.805	138.729	-19.1726	221.177	113.221	-26.023	205.084	92.5335	-33.2529	187.467	166.69	-4.42534	156.985	156.912	-8.16227	128.596	148.875	-14.4622	103.614	200.94	-8.38994	141.384	197.277	-14.3675	111.306	195.505	-20.7585	79.7586	224.173	-19.0887	146.188	223.659	-21.8016	121.288	224.777	-25.7298	90.7228	240.62	-34.9213	166.999	251.425	-40.2349	141.79	259.307	-37.7425	116.81	225.072	-7.82412	201.69	233.724	-3.60172	232.965	199.059	4.73234	224.536	
20	0.166667	163.742	-14.0105	239.023	138.535	-20.5913	227.887	107.874	-26.5817	208.22	95.5705	-35.4509	188.113	169.012	-6.22015	156.303	154.671	-9.11299	131.402	147.797	-16.3272	105.362	196.597	-7.6751	147.916	196.53	-13.9497	116.342	191.335	-21.3076	81.4223	221.842	-19.1153	149.057	222.796	-23.0275	122.127	226.645	-27.5003	97.0999	244.838	-36.5972	167.978	252.116	-42.3561	145.77	261.855	-41.5916	121.964	230.41	-9.91389	208.184	235.804	-4.05451	237.926	193.24	3.82099	222.442	
